# xmcd CD database file
#
# Track frame offsets:
#	150
#	13863
#	31716
#	48577
#	65953
#	83008
#	103645
#	122387
#	124331
#	140955
#	160884
#	177941
#	182287
#	201764
#
# Disc length: 2966 seconds
#
# Revision: 0
# Processed by: cddbd v1.5.2PL0 Copyright (c) Steve Scherf et al.
# Submitted via: CDex 1.51
#
DISCID=c00b940e
DTITLE=O'Neil, Jamie - Shiver
DYEAR=1900
DGENRE=Country
TTITLE0=When I Think About Angels
TTITLE1=There Is No Arizona
TTITLE2=Where We Belong
TTITLE3=No More Protecting My Heart
TTITLE4=She Hasn't Heard It Yet
TTITLE5=You Rescued Me
TTITLE6=Shiver
TTITLE7=The Only Thing Wrong
TTITLE8=I'm Still Waiting
TTITLE9=I'm Not Gonna Do Anything Without You
TTITLE10=Sanctuary
TTITLE11=Frantic
TTITLE12=To Be With You
TTITLE13=All By Myself
EXTD=
EXTT0=
EXTT1=
EXTT2=
EXTT3=
EXTT4=
EXTT5=
EXTT6=
EXTT7=
EXTT8=
EXTT9=
EXTT10=
EXTT11=
EXTT12=
EXTT13=
PLAYORDER=
